<svg width="101" height="100" viewBox="0 0 101 100" fill="none" xmlns="http://www.w3.org/2000/svg">
<g clip-path="url(#clip0_162_4191)">
<path d="M57.3229 0.311615L64.8418 4.95268C57.5061 10.2677 53.5618 24.0586 52.4776 32.042C53.0165 23.74 54.7094 8.58391 57.3229 0.311615ZM30.9223 12.06C41.3136 13.4648 49.2253 19.9854 51.1262 27.9879C42.7489 25.3531 30.4158 23.4537 20.0664 21.9691C11.8309 20.4588 2.37415 19.4792 -2.82825 13.0216C9.11924 13.8546 19.9585 11.7669 30.9223 12.06ZM51.7893 36.8123C52.188 37.0308 52.7002 37.0308 53.0988 36.8123C67.0732 29.3424 77.6656 28.5861 84.6951 32.9657C91.7245 37.3453 95.72 47.2249 95.72 62.1913C95.72 71.9056 91.4891 81.5874 84.0615 87.6958C76.6339 93.8039 66.0468 96.4798 52.8876 92.1697C52.6155 92.0819 52.3148 92.0819 52.0428 92.1697C38.8836 96.4798 28.2965 93.8039 20.8689 87.6958C13.4413 81.5874 9.21037 71.9056 9.21037 62.1913C9.21037 46.9447 13.2912 36.9793 20.362 32.6312C30.5948 26.9681 43.3252 32.1919 51.7893 36.8123Z" fill="#35CC8C"/>
</g>
<defs>
<clipPath id="clip0_162_4191">
<rect width="100" height="100" fill="white" transform="translate(0.5)"/>
</clipPath>
</defs>
</svg>
